<svg xmlns="http://www.w3.org/2000/svg" viewBox="0 0 243.779 425.197">
<path fill="#E40375" d="M237.716,270.727C220.194,137.987,107.548,104.575,123.244,7.087
	c-13.159,10.751-46.19,66.451-35.215,126.492c-15.788-16.401-33.081-25.219-33.081-25.219s23.295,29.754-9.634,95.012
	C17.586,258.325,6.213,278.9,4.143,309.511c-2.881,42.568,19.386,73.29,51.347,92.454c1.917,1.15,14.353,9.207,31.895,14.438
	c-27.117-13.342-34.98-40.81-34.98-40.81c-3.306-10.081-4.459-20.952-3.039-31.817c3.794-29,20.458-48.045,34.125-71.956
	c12.62-22.046,35.007-51.799,25.429-97.077c70.036,79.433,84.495,136.434,77.023,186.05c-1.629,10.836-6.213,22.334-11.985,31.179
	c0,0-9.761,17.15-29.982,26.139C209.291,402.877,245.519,329.83,237.716,270.727z"/>
</svg>
