<?xml version="1.0" encoding="utf-8"?>
<svg xmlns="http://www.w3.org/2000/svg"	xmlns:xlink="http://www.w3.org/1999/xlink" viewBox="0 0 85 47">
<path d="M 84.74 25.09C 84.1 23.36 83.32 23.17 81.38 21.44 82.7 20.09 83.52 18.25 83.52 16.22 83.52 12.09 80.13 8.73 75.95 8.73 73.58 8.73 71.47 9.81 70.08 11.49 68.66 4.92 62.75 0 55.69 0 49.17 0 43.63 4.19 41.7 10 39.77 4.19 34.24 0 27.71 0 20.69 0 14.81 4.87 13.34 11.38 11.96 9.76 9.89 8.73 7.57 8.73 3.39 8.73 0 12.09 0 16.22 0 18.46 0.99 20.46 2.57 21.83 2.92 22.24 3.37 22.56 3.88 22.78 2.81 24.65 2.19 26.81 2.19 29.11 2.19 36.24 8.03 42.01 15.23 42.01 20.74 42.01 25.45 38.63 27.36 33.86 28.08 41.23 34.37 47 42.02 47 49.22 47 55.21 41.88 56.49 35.13 58.67 39.22 63.02 42.01 68.03 42.01 75.09 42.01 80.84 36.46 81.06 29.53 81.09 29.53 81.11 29.53 81.14 29.53 83.62 29.53 85.69 27.64 84.74 25.09ZM 6.15 21.67C 4.73 21.67 3.58 20.54 3.58 19.13 3.58 18.93 3.62 18.69 3.7 18.43 3.86 18.62 4.1 18.75 4.38 18.75 4.87 18.75 5.27 18.36 5.27 17.88 5.27 17.48 4.69 16.84 4.47 16.61 5.01 15.58 5.59 14.7 5.59 14.7 5.59 14.7 8.71 17.73 8.71 19.13 8.71 20.54 7.56 21.67 6.15 21.67ZM 14.45 34.07C 11.72 34.07 9.5 31.88 9.5 29.17 9.5 26.46 14.45 21.55 14.45 21.55 14.45 21.55 19.41 26.46 19.41 29.17 19.41 31.88 17.19 34.07 14.45 34.07ZM 27.78 24.47C 27.78 24.47 21.46 18.21 21.46 14.76 21.46 11.31 24.29 8.51 27.78 8.51 31.27 8.51 34.1 11.31 34.1 14.76 34.1 18.21 27.78 24.47 27.78 24.47ZM 41.82 38.16C 38.44 38.16 35.7 35.45 35.7 32.12 35.7 28.78 41.82 22.73 41.82 22.73 41.82 22.73 47.93 28.78 47.93 32.12 47.93 35.45 45.19 38.16 41.82 38.16ZM 56.11 24.47C 56.11 24.47 49.79 18.21 49.79 14.76 49.79 11.31 52.62 8.51 56.11 8.51 59.6 8.51 62.43 11.31 62.43 14.76 62.43 18.21 56.11 24.47 56.11 24.47ZM 68.58 34.07C 65.84 34.07 63.62 31.88 63.62 29.17 63.62 26.46 68.58 21.55 68.58 21.55 68.58 21.55 73.54 26.46 73.54 29.17 73.54 31.88 71.32 34.07 68.58 34.07ZM 76.52 22.23C 76.52 22.23 73.21 18.95 73.21 17.14 73.21 15.33 74.69 13.86 76.52 13.86 78.35 13.86 79.84 15.33 79.84 17.14 79.84 18.95 76.52 22.23 76.52 22.23ZM 81.2 27.81C 79.82 27.81 78.71 26.7 78.71 25.34 78.71 23.98 81.2 21.51 81.2 21.51 81.2 21.51 83.7 23.98 83.7 25.34 83.7 26.7 82.58 27.81 81.2 27.81Z" /></svg>