
<svg xmlns="http://www.w3.org/2000/svg" xmlns:xlink="http://www.w3.org/1999/xlink" version="1.2" baseProfile="tiny" x="0px" y="0px" viewBox="0 0 100 125" xml:space="preserve"><path d="M7.5,80c0,6.893,5.607,12.5,12.5,12.5h60c6.893,0,12.5-5.607,12.5-12.5V30c0-6.893-5.607-12.5-12.5-12.5h-7.5V10  c0-1.381-1.119-2.5-2.5-2.5s-2.5,1.119-2.5,2.5v7.5h-15V10c0-1.381-1.119-2.5-2.5-2.5s-2.5,1.119-2.5,2.5v7.5h-15V10  c0-1.381-1.119-2.5-2.5-2.5s-2.5,1.119-2.5,2.5v7.5H20c-6.893,0-12.5,5.607-12.5,12.5V80z M12.5,30c0-4.136,3.364-7.5,7.5-7.5h7.5  V30c0,1.381,1.119,2.5,2.5,2.5s2.5-1.119,2.5-2.5v-7.5h15V30c0,1.381,1.119,2.5,2.5,2.5s2.5-1.119,2.5-2.5v-7.5h15V30  c0,1.381,1.119,2.5,2.5,2.5s2.5-1.119,2.5-2.5v-7.5H80c4.136,0,7.5,3.364,7.5,7.5v7.5h-75V30z M12.5,42.5h75V80  c0,4.136-3.364,7.5-7.5,7.5H20c-4.136,0-7.5-3.364-7.5-7.5V42.5z"/><path d="M40.732,79.268C41.221,79.756,41.86,80,42.5,80s1.279-0.244,1.768-0.732l25-25c0.977-0.977,0.977-2.559,0-3.535  s-2.559-0.977-3.535,0L42.5,73.965l-8.232-8.232c-0.977-0.977-2.559-0.977-3.535,0s-0.977,2.559,0,3.535L40.732,79.268z"/></svg>