<svg xmlns="http://www.w3.org/2000/svg" width="46" height="46" viewBox="0 0 46 46">
	<circle cx="23" cy="23" r="4"/>
	<path d="M23,1C10.85,1,1,10.85,1,23s9.85,22,22,22s22-9.85,22-22S35.15,1,23,1z M33,29c0,2.209-1.791,4-4,4H17
		c-2.209,0-4-1.791-4-4V17c0-2.209,1.791-4,4-4h12c2.209,0,4,1.791,4,4V29z"/>
	<rect x="27" y="16" width="3" height="3"/>
	<path d="M29,23c0,3.314-2.688,6-6,6c-3.313,0-6-2.686-6-6c0-0.342,0.046-0.673,0.101-1H15v7c0,1.104,0.896,2,2,2h12
		c1.104,0,2-0.896,2-2v-7h-2.101C28.955,22.327,29,22.658,29,23z"/>
</svg>
