<svg xmlns="http://www.w3.org/2000/svg" width="46" height="46" viewBox="0 0 46 46">
<path d="M23,1C10.85,1,1,10.85,1,23s9.85,22,22,22s22-9.85,22-22S35.15,1,23,1z M25.356,41.07
	c1.771-0.786,2.628-2.29,2.628-2.29c0.503-0.772,0.905-1.779,1.05-2.73c0.653-4.345-0.615-9.337-6.748-16.296
	c0.839,3.966-1.122,6.572-2.227,8.503c-1.198,2.094-2.656,3.764-2.989,6.303c-0.123,0.952-0.024,1.903,0.266,2.787
	c0,0,0.688,2.405,3.063,3.574c-1.536-0.457-2.625-1.163-2.792-1.264c-2.801-1.679-4.75-4.37-4.499-8.099
	c0.182-2.681,1.178-4.482,3.608-9.297c2.883-5.716,0.842-8.323,0.842-8.323s1.517,0.773,2.897,2.211
	c-0.959-5.259,1.933-10.139,3.085-11.079c-1.373,8.539,8.49,11.465,10.025,23.092C34.252,33.339,31.078,39.736,25.356,41.07z"/>
</svg>
